Coordinates
version=1
nRows=10
nColumns=46
inDegrees=yes

Units are S.I. units (second, meters, Newtons, ...)
Angles are in degrees.

endheader
time	pelvis_tilt	pelvis_list	pelvis_rotation	pelvis_tx	pelvis_ty	pelvis_tz	bb_angle	bb_tx	bb_ty	bb_tz	hip_flexion_r	hip_adduction_r	hip_rotation_r	knee_angle_r	knee_angle_r_beta	ankle_angle_r	subtalar_angle_r	mtp_angle_r	crank_angle_r	hip_flexion_l	hip_adduction_l	hip_rotation_l	knee_angle_l	knee_angle_l_beta	ankle_angle_l	subtalar_angle_l	mtp_angle_l	crank_angle_l	lumbar_extension	lumbar_bending	lumbar_rotation	arm_flex_r	arm_add_r	arm_rot_r	elbow_flex_r	pro_sup_r	wrist_flex_r	wrist_dev_r	arm_flex_l	arm_add_l	arm_rot_l	elbow_flex_l	pro_sup_l	wrist_flex_l	wrist_dev_l
      0.00500000	    -22.70000454	      0.46601171	     -2.20595721	      0.14890369	      1.03773119	     -0.21162261	      0.00000000	      0.50000000	      0.00000000	      0.25000000	     87.34865336	     -3.03270507	      2.06605355	     80.17711148	      1.39935458	     -6.76709179	     -5.24990659	      0.00000000	      0.00000000	     61.96960422	     -4.96463056	      3.09564357	     82.38664828	      1.43791827	    -14.72959724	    -13.32028687	      0.00000000	      0.00000000	    -37.80529679	     -0.21403426	      0.52285857	     79.64062560	     -4.47636820	     33.40499269	     30.83910294	     42.72743743	      0.00000000	      0.00000000	     75.78564609	     -9.36777099	     26.68165729	     33.25469107	     42.55197321	      0.00000000	      0.00000000
      0.01000000	    -22.71391379	      0.46197559	     -2.23340303	      0.14890851	      1.03771300	     -0.21161750	      0.00000000	      0.50000000	      0.00000000	      0.25000000	     87.39661887	     -2.99537960	      2.08154271	     80.22861755	      1.40025353	     -6.74940661	     -5.22565539	      0.00000000	      0.00000000	     61.95964388	     -4.99648569	      3.07696687	     82.34063252	      1.43711515	    -14.70420948	    -13.25544747	      0.00000000	      0.00000000	    -37.82044380	     -0.21438444	      0.54611238	     79.57398346	     -4.33588425	     32.85980222	     30.84786846	     42.71136095	      0.00000000	      0.00000000	     75.72627948	     -9.23675423	     26.15446445	     33.26748021	     42.48442378	      0.00000000	      0.00000000
      0.01500000	    -22.74065014	      0.45432558	     -2.25798778	      0.14890899	      1.03767138	     -0.21161245	      0.00000000	      0.50000000	      0.00000000	      0.25000000	     87.45789316	     -2.96106466	      2.08583287	     80.27106829	      1.40099444	     -6.76912036	     -5.25364275	      0.00000000	      0.00000000	     61.96714196	     -5.02001936	      3.07233426	     82.29902827	      1.43638901	    -14.70471426	    -13.25111591	      0.00000000	      0.00000000	    -37.85434391	     -0.22656127	      0.61835683	     79.45778322	     -4.71317634	     33.29932546	     31.35347318	     43.00341057	      0.00000000	      0.00000000	     75.71034339	     -9.39219136	     26.62088966	     33.48564091	     42.67651711	      0.00000000	      0.00000000
      0.02000000	    -22.74996982	      0.46477604	     -2.27537422	      0.14895386	      1.03769089	     -0.21159446	      0.00000000	      0.50000000	      0.00000000	      0.25000000	     87.50053455	     -2.93861039	      2.11384484	     80.29876937	      1.40147791	     -6.84576053	     -5.30295645	      0.00000000	      0.00000000	     61.92408597	     -5.02993674	      3.05924558	     82.23011273	      1.43518621	    -14.66458557	    -13.11645854	      0.00000000	      0.00000000	    -37.90757036	     -0.25996600	      0.66103178	     79.30432387	     -4.74564598	     32.72683876	     31.68202585	     43.11681390	      0.00000000	      0.00000000	     75.61313720	     -9.31099534	     26.13633249	     33.74398162	     42.75547923	      0.00000000	      0.00000000
      0.02500000	    -22.80691093	      0.45908301	     -2.31057693	      0.14882731	      1.03777174	     -0.21158109	      0.00000000	      0.50000000	      0.00000000	      0.25000000	     87.59708661	     -2.89640343	      2.13137520	     80.33152997	      1.40204969	     -6.85019100	     -5.28245413	      0.00000000	      0.00000000	     61.96188077	     -5.07625087	      3.05253614	     82.17523244	      1.43422837	    -14.64636513	    -13.10089017	      0.00000000	      0.00000000	    -37.86566498	     -0.28708006	      0.66306988	     79.18856963	     -4.75748268	     32.41016244	     31.78154372	     43.04034588	      0.00000000	      0.00000000	     75.58153891	     -9.30835710	     25.82907021	     33.82459306	     42.65080360	      0.00000000	      0.00000000
      0.03000000	    -22.85771931	      0.50407050	     -2.34853995	      0.14884928	      1.03769665	     -0.21159429	      0.00000000	      0.50000000	      0.00000000	      0.25000000	     87.70563705	     -2.86082520	      2.19260189	     80.40421350	      1.40331826	     -6.87297831	     -5.30548220	      0.00000000	      0.00000000	     61.98366088	     -5.08149635	      2.98688049	     82.12690008	      1.43338481	    -14.70339070	    -13.21170549	      0.00000000	      0.00000000	    -37.90851488	     -0.28789230	      0.74235985	     79.14527128	     -4.80486902	     32.06162101	     32.19473957	     43.00856976	      0.00000000	      0.00000000	     75.47283145	     -9.27748778	     25.54661719	     34.12313217	     42.62324090	      0.00000000	      0.00000000
      0.03500000	    -22.92206870	      0.52493118	     -2.41272976	      0.14891172	      1.03767337	     -0.21150864	      0.00000000	      0.50000000	      0.00000000	      0.25000000	     87.79373680	     -2.79040685	      2.22520416	     80.42705717	      1.40371696	     -6.88207148	     -5.32224490	      0.00000000	      0.00000000	     62.00781930	     -5.14144861	      2.90018915	     82.05652169	      1.43215648	    -14.82182490	    -13.42850349	      0.00000000	      0.00000000	    -37.89897256	     -0.34128189	      0.76537283	     78.92681416	     -4.70039848	     31.24663203	     32.63875863	     42.97089768	      0.00000000	      0.00000000	     75.25310226	     -9.18659816	     24.79643179	     34.57498519	     42.56554950	      0.00000000	      0.00000000
      0.04000000	    -22.92729249	      0.50948889	     -2.43883814	      0.14896831	      1.03767609	     -0.21152929	      0.00000000	      0.50000000	      0.00000000	      0.25000000	     87.81510438	     -2.74968737	      2.26050024	     80.47556617	      1.40456360	     -6.71405037	     -5.15006935	      0.00000000	      0.00000000	     61.96336782	     -5.18474524	      2.91082743	     82.03680595	      1.43181237	    -14.38653411	    -12.89220135	      0.00000000	      0.00000000	    -38.06111858	     -0.32152937	      0.82789300	     78.56951035	     -4.95003349	     30.24759712	     34.18231047	     43.10102823	      0.00000000	      0.00000000	     74.86204377	     -9.38851144	     23.99830136	     36.04631267	     42.71680556	      0.00000000	      0.00000000
      0.04500000	    -22.99682328	      0.49448075	     -2.46130142	      0.14891870	      1.03746310	     -0.21149539	      0.00000000	      0.50000000	      0.00000000	      0.25000000	     87.94817323	     -2.70598964	      2.25198101	     80.54902971	      1.40584578	     -6.88865436	     -5.33124743	      0.00000000	      0.00000000	     62.02864809	     -5.19072590	      2.93562129	     82.00661845	      1.43128550	    -14.58620174	    -13.17693735	      0.00000000	      0.00000000	    -37.89552672	     -0.33908483	      0.82787627	     78.89052677	     -4.81589493	     31.52015486	     32.86888660	     43.13997285	      0.00000000	      0.00000000	     75.24586981	     -9.26886687	     25.04884105	     34.77390992	     42.72424878	      0.00000000	      0.00000000
      0.05000000	    -23.04627900	      0.49336826	     -2.49236475	      0.14896116	      1.03742777	     -0.21149137	      0.00000000	      0.50000000	      0.00000000	      0.25000000	     88.01951159	     -2.66977808	      2.25534119	     80.58221564	      1.40642498	     -6.84955799	     -5.34778482	      0.00000000	      0.00000000	     62.02903003	     -5.22108884	      2.90996628	     81.94051243	      1.43013173	    -14.48651449	    -13.17539538	      0.00000000	      0.00000000	    -37.91566161	     -0.34371706	      0.87386023	     78.95576302	     -5.34722795	     32.61742352	     33.21976567	     43.44955097	      0.00000000	      0.00000000	     75.23370289	     -9.70059795	     26.03483837	     35.04231456	     42.96897738	      0.00000000	      0.00000000
